<?xml version="1.0" encoding="UTF-8"?><svg xmlns="http://www.w3.org/2000/svg" xmlns:xlink="http://www.w3.org/1999/xlink" fill-opacity="1" color-rendering="auto" color-interpolation="auto" text-rendering="auto" stroke="black" stroke-linecap="square" width="953" stroke-miterlimit="10" shape-rendering="auto" stroke-opacity="1" fill="black" stroke-dasharray="none" font-weight="normal" stroke-width="1" height="748" font-family="'Dialog'" font-style="normal" stroke-linejoin="miter" font-size="12px" stroke-dashoffset="0" image-rendering="auto">
  <!--Generated by ySVG 2.5-->
  <defs id="genericDefs"/>
  <g>
    <defs id="defs1">
      <clipPath clipPathUnits="userSpaceOnUse" id="clipPath1">
        <path d="M0 0 L953 0 L953 748 L0 748 L0 0 Z"/>
      </clipPath>
      <clipPath clipPathUnits="userSpaceOnUse" id="clipPath2">
        <path d="M96 0 L1049 0 L1049 748 L96 748 L96 0 Z"/>
      </clipPath>
    </defs>
    <g fill="white" text-rendering="geometricPrecision" shape-rendering="geometricPrecision" transform="translate(-96,0)" stroke="white">
      <rect x="96" width="953" height="748" y="0" clip-path="url(#clipPath2)" stroke="none"/>
    </g>
    <g fill="rgb(255,204,0)" text-rendering="geometricPrecision" shape-rendering="geometricPrecision" transform="matrix(1,0,0,1,-96,0)" stroke="rgb(255,204,0)">
      <ellipse rx="64.5" ry="32.5" clip-path="url(#clipPath2)" cx="175.5455" cy="109.8019" stroke="none"/>
    </g>
    <g text-rendering="geometricPrecision" stroke-miterlimit="1.45" shape-rendering="geometricPrecision" transform="matrix(1,0,0,1,-96,0)" stroke-linecap="butt">
      <ellipse rx="64.5" fill="none" ry="32.5" clip-path="url(#clipPath2)" cx="175.5455" cy="109.8019"/>
      <text x="145.481" xml:space="preserve" y="106.9719" clip-path="url(#clipPath2)" font-family="sans-serif" stroke="none">Capability</text>
      <text x="156.6519" xml:space="preserve" y="120.9406" clip-path="url(#clipPath2)" font-family="sans-serif" stroke="none">Profile</text>
    </g>
    <g fill="rgb(255,204,0)" text-rendering="geometricPrecision" shape-rendering="geometricPrecision" transform="matrix(1,0,0,1,-96,0)" stroke="rgb(255,204,0)">
      <ellipse rx="64.5" ry="35.5" clip-path="url(#clipPath2)" cx="529.7013" cy="470.1136" stroke="none"/>
    </g>
    <g text-rendering="geometricPrecision" stroke-miterlimit="1.45" shape-rendering="geometricPrecision" transform="matrix(1,0,0,1,-96,0)" stroke-linecap="butt">
      <ellipse rx="64.5" fill="none" ry="35.5" clip-path="url(#clipPath2)" cx="529.7013" cy="470.1136"/>
      <text x="502.2999" xml:space="preserve" y="474.2679" clip-path="url(#clipPath2)" font-family="sans-serif" stroke="none">Standard</text>
    </g>
    <g fill="rgb(255,204,0)" text-rendering="geometricPrecision" shape-rendering="geometricPrecision" transform="matrix(1,0,0,1,-96,0)" stroke="rgb(255,204,0)">
      <ellipse rx="55.5" ry="24" clip-path="url(#clipPath2)" cx="841.5" cy="263.0422" stroke="none"/>
    </g>
    <g text-rendering="geometricPrecision" stroke-miterlimit="1.45" shape-rendering="geometricPrecision" transform="matrix(1,0,0,1,-96,0)" stroke-linecap="butt">
      <ellipse rx="55.5" fill="none" ry="24" clip-path="url(#clipPath2)" cx="841.5" cy="263.0422"/>
      <text x="819.3252" xml:space="preserve" y="260.2121" clip-path="url(#clipPath2)" font-family="sans-serif" stroke="none">Service</text>
      <text x="822.6064" xml:space="preserve" y="274.1809" clip-path="url(#clipPath2)" font-family="sans-serif" stroke="none">Profile</text>
    </g>
    <g fill="rgb(255,204,0)" text-rendering="geometricPrecision" shape-rendering="geometricPrecision" transform="matrix(1,0,0,1,-96,0)" stroke="rgb(255,204,0)">
      <ellipse rx="55.5" ry="21.5" clip-path="url(#clipPath2)" cx="352.5" cy="189" stroke="none"/>
    </g>
    <g text-rendering="geometricPrecision" stroke-miterlimit="1.45" shape-rendering="geometricPrecision" transform="matrix(1,0,0,1,-96,0)" stroke-linecap="butt">
      <ellipse rx="55.5" fill="none" ry="21.5" clip-path="url(#clipPath2)" cx="352.5" cy="189"/>
      <text x="333.6064" xml:space="preserve" y="193.1543" clip-path="url(#clipPath2)" font-family="sans-serif" stroke="none">Profile</text>
    </g>
    <g fill="rgb(255,204,0)" text-rendering="geometricPrecision" shape-rendering="geometricPrecision" transform="matrix(1,0,0,1,-96,0)" stroke="rgb(255,204,0)">
      <ellipse rx="46" ry="28" clip-path="url(#clipPath2)" cx="973" cy="173" stroke="none"/>
    </g>
    <g text-rendering="geometricPrecision" stroke-miterlimit="1.45" shape-rendering="geometricPrecision" transform="matrix(1,0,0,1,-96,0)" stroke-linecap="butt">
      <ellipse rx="46" fill="none" ry="28" clip-path="url(#clipPath2)" cx="973" cy="173"/>
      <text x="957.3408" xml:space="preserve" y="177.1543" clip-path="url(#clipPath2)" font-family="sans-serif" stroke="none">Node</text>
    </g>
    <g fill="rgb(255,204,0)" text-rendering="geometricPrecision" shape-rendering="geometricPrecision" transform="matrix(1,0,0,1,-96,0)" stroke="rgb(255,204,0)">
      <ellipse rx="70" ry="38" clip-path="url(#clipPath2)" cx="887" cy="661.5" stroke="none"/>
    </g>
    <g text-rendering="geometricPrecision" stroke-miterlimit="1.45" shape-rendering="geometricPrecision" transform="matrix(1,0,0,1,-96,0)" stroke-linecap="butt">
      <ellipse rx="70" fill="none" ry="38" clip-path="url(#clipPath2)" cx="887" cy="661.5"/>
      <text x="838.6807" xml:space="preserve" y="658.6699" clip-path="url(#clipPath2)" font-family="sans-serif" stroke="none">Basic Standards</text>
      <text x="868.1064" xml:space="preserve" y="672.6387" clip-path="url(#clipPath2)" font-family="sans-serif" stroke="none">Profile</text>
    </g>
    <g fill="rgb(255,204,0)" text-rendering="geometricPrecision" shape-rendering="geometricPrecision" transform="matrix(1,0,0,1,-96,0)" stroke="rgb(255,204,0)">
      <ellipse rx="70" ry="28" clip-path="url(#clipPath2)" cx="916" cy="527.1429" stroke="none"/>
    </g>
    <g text-rendering="geometricPrecision" stroke-miterlimit="1.45" shape-rendering="geometricPrecision" transform="matrix(1,0,0,1,-96,0)" stroke-linecap="butt">
      <ellipse rx="70" fill="none" ry="28" clip-path="url(#clipPath2)" cx="916" cy="527.1429"/>
      <text x="867.6807" xml:space="preserve" y="524.3128" clip-path="url(#clipPath2)" font-family="sans-serif" stroke="none">Basic Standards</text>
      <text x="873.0244" xml:space="preserve" y="538.2816" clip-path="url(#clipPath2)" font-family="sans-serif" stroke="none">Service Profile</text>
    </g>
    <g fill="rgb(255,204,0)" text-rendering="geometricPrecision" shape-rendering="geometricPrecision" transform="matrix(1,0,0,1,-96,0)" stroke="rgb(255,204,0)">
      <ellipse rx="80" ry="38" clip-path="url(#clipPath2)" cx="352.5" cy="695" stroke="none"/>
    </g>
    <g text-rendering="geometricPrecision" stroke-miterlimit="1.45" shape-rendering="geometricPrecision" transform="matrix(1,0,0,1,-96,0)" stroke-linecap="butt">
      <ellipse rx="80" fill="none" ry="38" clip-path="url(#clipPath2)" cx="352.5" cy="695"/>
      <text x="314.0596" xml:space="preserve" y="699.1543" clip-path="url(#clipPath2)" font-family="sans-serif" stroke="none">Organisation</text>
    </g>
    <g fill="rgb(255,204,0)" text-rendering="geometricPrecision" shape-rendering="geometricPrecision" transform="matrix(1,0,0,1,-96,0)" stroke="rgb(255,204,0)">
      <ellipse rx="58.8312" ry="32.5" clip-path="url(#clipPath2)" cx="271.2403" cy="411.7662" stroke="none"/>
    </g>
    <g text-rendering="geometricPrecision" stroke-miterlimit="1.45" shape-rendering="geometricPrecision" transform="matrix(1,0,0,1,-96,0)" stroke-linecap="butt">
      <ellipse rx="58.8312" fill="none" ry="32.5" clip-path="url(#clipPath2)" cx="271.2403" cy="411.7662"/>
      <text x="254.0518" xml:space="preserve" y="415.9205" clip-path="url(#clipPath2)" font-family="sans-serif" stroke="none">Event</text>
      <path fill="none" d="M568.3699 441.6862 L568.3805 441.6571 L569.3785 437.7758 L569.9922 433.7545 L570.2013 429.6136 L569.9922 425.4727 L569.3785 421.4515 L568.3805 417.5702 L567.0186 413.8492 L565.3132 410.3089 L563.2845 406.9697 L560.9531 403.8519 L558.3391 400.9758 L555.4631 398.3619 L552.3452 396.0304 L549.006 394.0018 L545.4657 392.2963 L541.7448 390.9344 L537.8635 389.9365 L533.8422 389.3228 L529.7013 389.1136 L525.5604 389.3228 L521.5391 389.9365 L517.6578 390.9344 L513.9369 392.2963 L510.3966 394.0018 L507.0573 396.0304 L503.9395 398.3619 L501.0635 400.9758 L498.4495 403.8519 L496.118 406.9697 L494.0894 410.309 L492.384 413.8492 L491.0221 417.5702 L490.0241 421.4515 L489.4104 425.4728 L489.2013 429.6136 L489.4104 433.7545 L489.4249 433.8494 L489.4498 433.9463" clip-path="url(#clipPath2)"/>
      <path d="M491.0528 441.784 L493.547 429.0255 L489.2495 432.9665 L483.7498 431.0292 Z" clip-path="url(#clipPath2)" stroke="none"/>
      <text x="534.9435" xml:space="preserve" y="378.5874" clip-path="url(#clipPath2)" font-family="sans-serif" stroke="none">IS CHILD OF</text>
      <path fill="none" d="M236.4315 99.0759 L505.051 51.7544 L514.5312 51.819 L523.2752 55.4826 L804.1312 238.6687" clip-path="url(#clipPath2)"/>
      <path d="M810.8318 243.0392 L803.5124 232.2955 L803.2936 238.1224 L798.0493 240.6714 Z" clip-path="url(#clipPath2)" stroke="none"/>
      <text x="479.0897" xml:space="preserve" y="28.2132" clip-path="url(#clipPath2)" font-family="sans-serif" stroke="none">CONTAINS</text>
      <path fill="none" d="M811.216 283.1544 L577.5229 438.3544" clip-path="url(#clipPath2)"/>
      <path d="M570.8586 442.7802 L583.6212 440.3066 L578.3559 437.8012 L578.0889 431.9763 Z" clip-path="url(#clipPath2)" stroke="none"/>
      <text x="794.3271" xml:space="preserve" y="345.6307" clip-path="url(#clipPath2)" font-family="sans-serif" stroke="none">SUPPORTED_BY</text>
      <path fill="none" d="M219.6757 133.5043 L296.7555 174.904" clip-path="url(#clipPath2)"/>
      <path d="M303.8033 178.6894 L295.5975 168.6065 L295.8745 174.4309 L290.8658 177.4162 Z" clip-path="url(#clipPath2)" stroke="none"/>
      <text x="247.0455" xml:space="preserve" y="135.0827" clip-path="url(#clipPath2)" font-family="sans-serif" stroke="none">CONTAINS</text>
      <path fill="none" d="M377.8223 169.9004 L378.4616 167.8407 L379 162.5 L378.4616 157.1593 L376.9175 152.185 L374.4742 147.6836 L371.2383 143.7617 L367.3164 140.5258 L362.815 138.0825 L357.8407 136.5384 L352.5 136 L347.1593 136.5384 L342.185 138.0825 L337.6836 140.5258 L333.7617 143.7617 L330.5258 147.6836 L328.0825 152.185 L326.5384 157.1593 L326.0524 161.9799 L326.0681 162.0787" clip-path="url(#clipPath2)"/>
      <path d="M327.1918 169.9994 L330.4568 157.416 L325.9277 161.0886 L320.5559 158.8206 Z" clip-path="url(#clipPath2)" stroke="none"/>
      <text x="351.2637" xml:space="preserve" y="126.9121" clip-path="url(#clipPath2)" font-family="sans-serif" stroke="none">CONTAINS</text>
      <path fill="none" d="M404.1917 196.8269 L781.2084 253.9131" clip-path="url(#clipPath2)"/>
      <path d="M789.1183 255.1108 L778.0021 248.3707 L780.2197 253.7634 L776.505 258.258 Z" clip-path="url(#clipPath2)" stroke="none"/>
      <text x="587.1275" xml:space="preserve" y="203.0683" clip-path="url(#clipPath2)" font-family="sans-serif" stroke="none">CONTAINS</text>
      <path fill="none" d="M871.1351 242.7501 L935.8372 198.4466" clip-path="url(#clipPath2)"/>
      <path d="M942.438 193.9268 L929.7119 196.581 L935.012 199.0116 L935.3616 204.832 Z" clip-path="url(#clipPath2)" stroke="none"/>
      <text x="896.54" xml:space="preserve" y="239.4181" clip-path="url(#clipPath2)" font-family="sans-serif" stroke="none">IMPLEMENTS</text>
      <path fill="none" d="M1003.6754 152.1108 L1004.5164 149.8132 L1005.3295 146.6507 L1005.8297 143.3741 L1006 140 L1005.8297 136.6259 L1005.3295 133.3493 L1004.5164 130.1868 L1003.4067 127.1549 L1002.0171 124.2702 L1000.3641 121.5494 L998.4644 119.0089 L996.3345 116.6655 L993.9911 114.5356 L991.4506 112.6359 L988.7297 110.9829 L985.8451 109.5933 L982.8132 108.4836 L979.6506 107.6704 L976.3741 107.1704 L973 107 L969.6259 107.1704 L966.3494 107.6704 L963.1868 108.4836 L960.1549 109.5933 L957.2703 110.9829 L954.5494 112.6359 L952.0089 114.5356 L949.6655 116.6655 L947.5356 119.0089 L945.6359 121.5494 L943.9829 124.2702 L942.5933 127.1549 L941.4836 130.1868 L940.6705 133.3493 L940.1703 136.6259 L940 140 L940.1703 143.3741 L940.3217 144.3656 L940.3507 144.4613" clip-path="url(#clipPath2)"/>
      <path d="M942.3495 152.2076 L944.1927 139.3389 L940.1008 143.493 L934.5099 141.8374 Z" clip-path="url(#clipPath2)" stroke="none"/>
      <text x="959.6948" xml:space="preserve" y="74.4608" clip-path="url(#clipPath2)" font-family="sans-serif" stroke="none">IS CHILD OF</text>
      <path fill="none" d="M895.1463 623.7582 L908.291 562.859" clip-path="url(#clipPath2)"/>
      <path d="M909.9788 555.0391 L902.5596 565.7141 L908.08 563.8365 L912.3345 567.8239 Z" clip-path="url(#clipPath2)" stroke="none"/>
      <text x="889.4947" xml:space="preserve" y="593.4757" clip-path="url(#clipPath2)" font-family="sans-serif" stroke="none">CONTAINS 1..*</text>
      <path fill="none" d="M850.3299 517.448 L599.9134 480.479" clip-path="url(#clipPath2)"/>
      <path d="M591.9991 479.3107 L603.1403 486.0096 L600.9026 480.6251 L604.6007 476.1168 Z" clip-path="url(#clipPath2)" stroke="none"/>
      <text x="695.5198" xml:space="preserve" y="475.3885" clip-path="url(#clipPath2)" font-family="sans-serif" stroke="none">SUPPORTED_BY</text>
      <path fill="none" d="M356.1927 657.0405 L363.9117 577.6932 L364.873 573.0203 L366.7888 568.9544 L369.6591 565.4957 L373.4838 562.644 L478.9128 500.1965" clip-path="url(#clipPath2)"/>
      <path d="M485.796 496.1195 L472.9231 497.9331 L478.0524 500.7062 L478.0194 506.537 Z" clip-path="url(#clipPath2)" stroke="none"/>
      <text x="317.4934" xml:space="preserve" y="556.2238" clip-path="url(#clipPath2)" font-family="sans-serif" stroke="none">OWNS</text>
      <path fill="none" d="M394.6721 662.7087 L465.4109 608.5438 L480.3847 595.3564 L503.1315 572.3709 L508.9099 564.5911 L512.1768 555.4673 L520.8497 513.2256" clip-path="url(#clipPath2)"/>
      <path d="M522.4587 505.3891 L515.1473 516.1383 L520.6486 514.2052 L524.943 518.1495 Z" clip-path="url(#clipPath2)" stroke="none"/>
      <text x="527.1267" xml:space="preserve" y="537.4109" clip-path="url(#clipPath2)" font-family="sans-serif" stroke="none">RESPONSIBLE</text>
      <path fill="none" d="M185.7161 141.8954 L258.6783 372.1269" clip-path="url(#clipPath2)"/>
      <path d="M261.0951 379.7531 L262.2362 366.8033 L258.3762 371.1737 L252.7035 369.8243 Z" clip-path="url(#clipPath2)" stroke="none"/>
      <text x="181.2906" xml:space="preserve" y="264.9384" clip-path="url(#clipPath2)" font-family="sans-serif" stroke="none">1..*</text>
      <path fill="none" d="M344.7345 210.2885 L285.6034 372.3911" clip-path="url(#clipPath2)"/>
      <path d="M282.8618 379.9067 L291.6714 370.3467 L285.946 371.4516 L282.2769 366.9198 Z" clip-path="url(#clipPath2)" stroke="none"/>
      <text x="271.3109" xml:space="preserve" y="299.0374" clip-path="url(#clipPath2)" font-family="sans-serif" stroke="none">1..*</text>
      <path fill="none" d="M793.9743 275.437 L332.1819 395.8726" clip-path="url(#clipPath2)"/>
      <path d="M324.4408 397.8915 L337.3142 399.7014 L333.1495 395.6203 L334.7906 390.025 Z" clip-path="url(#clipPath2)" stroke="none"/>
      <text x="538.852" xml:space="preserve" y="312.351" clip-path="url(#clipPath2)" font-family="sans-serif" stroke="none">1..*</text>
      <path fill="none" d="M470.026 456.642 L333.5033 425.8221" clip-path="url(#clipPath2)"/>
      <path d="M325.6997 424.0604 L336.3041 431.5802 L334.4788 426.0423 L338.5062 421.8257 Z" clip-path="url(#clipPath2)" stroke="none"/>
      <text x="388.3551" xml:space="preserve" y="475.2093" clip-path="url(#clipPath2)" font-family="sans-serif" stroke="none">1..'</text>
    </g>
  </g>
</svg>
