<?xml version="1.0" encoding="UTF-8"?><svg xmlns="http://www.w3.org/2000/svg" xmlns:xlink="http://www.w3.org/1999/xlink" fill-opacity="1" color-rendering="auto" color-interpolation="auto" text-rendering="auto" stroke="black" stroke-linecap="square" width="852" stroke-miterlimit="10" shape-rendering="auto" stroke-opacity="1" fill="black" stroke-dasharray="none" font-weight="normal" stroke-width="1" height="702" font-family="'Dialog'" font-style="normal" stroke-linejoin="miter" font-size="12px" stroke-dashoffset="0" image-rendering="auto">
  <!--Generated by ySVG 2.5-->
  <defs id="genericDefs"/>
  <g>
    <defs id="defs1">
      <clipPath clipPathUnits="userSpaceOnUse" id="clipPath1">
        <path d="M0 0 L852 0 L852 702 L0 702 L0 0 Z"/>
      </clipPath>
      <clipPath clipPathUnits="userSpaceOnUse" id="clipPath2">
        <path d="M197 46 L1049 46 L1049 748 L197 748 L197 46 Z"/>
      </clipPath>
    </defs>
    <g fill="white" text-rendering="geometricPrecision" shape-rendering="geometricPrecision" transform="translate(-197,-46)" stroke="white">
      <rect x="197" width="852" height="702" y="46" clip-path="url(#clipPath2)" stroke="none"/>
    </g>
    <g fill="rgb(255,204,0)" text-rendering="geometricPrecision" shape-rendering="geometricPrecision" transform="matrix(1,0,0,1,-197,-46)" stroke="rgb(255,204,0)">
      <ellipse rx="64.5" ry="32.5" clip-path="url(#clipPath2)" cx="676.5455" cy="95.8019" stroke="none"/>
    </g>
    <g text-rendering="geometricPrecision" stroke-miterlimit="1.45" shape-rendering="geometricPrecision" transform="matrix(1,0,0,1,-197,-46)" stroke-linecap="butt">
      <ellipse rx="64.5" fill="none" ry="32.5" clip-path="url(#clipPath2)" cx="676.5455" cy="95.8019"/>
      <text x="657.6519" xml:space="preserve" y="92.9719" clip-path="url(#clipPath2)" font-family="sans-serif" stroke="none">Profile</text>
      <text x="638.023" xml:space="preserve" y="106.9406" clip-path="url(#clipPath2)" font-family="sans-serif" stroke="none">Specification</text>
    </g>
    <g fill="rgb(255,204,0)" text-rendering="geometricPrecision" shape-rendering="geometricPrecision" transform="matrix(1,0,0,1,-197,-46)" stroke="rgb(255,204,0)">
      <ellipse rx="55.5" ry="24" clip-path="url(#clipPath2)" cx="841.5" cy="263.0422" stroke="none"/>
    </g>
    <g text-rendering="geometricPrecision" stroke-miterlimit="1.45" shape-rendering="geometricPrecision" transform="matrix(1,0,0,1,-197,-46)" stroke-linecap="butt">
      <ellipse rx="55.5" fill="none" ry="24" clip-path="url(#clipPath2)" cx="841.5" cy="263.0422"/>
      <text x="819.3252" xml:space="preserve" y="260.2121" clip-path="url(#clipPath2)" font-family="sans-serif" stroke="none">Service</text>
      <text x="822.6064" xml:space="preserve" y="274.1809" clip-path="url(#clipPath2)" font-family="sans-serif" stroke="none">Profile</text>
    </g>
    <g fill="rgb(255,204,0)" text-rendering="geometricPrecision" shape-rendering="geometricPrecision" transform="matrix(1,0,0,1,-197,-46)" stroke="rgb(255,204,0)">
      <ellipse rx="55.5" ry="21.5" clip-path="url(#clipPath2)" cx="352.5" cy="189" stroke="none"/>
    </g>
    <g text-rendering="geometricPrecision" stroke-miterlimit="1.45" shape-rendering="geometricPrecision" transform="matrix(1,0,0,1,-197,-46)" stroke-linecap="butt">
      <ellipse rx="55.5" fill="none" ry="21.5" clip-path="url(#clipPath2)" cx="352.5" cy="189"/>
      <text x="333.6064" xml:space="preserve" y="193.1543" clip-path="url(#clipPath2)" font-family="sans-serif" stroke="none">Profile</text>
    </g>
    <g fill="rgb(255,204,0)" text-rendering="geometricPrecision" shape-rendering="geometricPrecision" transform="matrix(1,0,0,1,-197,-46)" stroke="rgb(255,204,0)">
      <ellipse rx="46" ry="28" clip-path="url(#clipPath2)" cx="973" cy="173" stroke="none"/>
    </g>
    <g text-rendering="geometricPrecision" stroke-miterlimit="1.45" shape-rendering="geometricPrecision" transform="matrix(1,0,0,1,-197,-46)" stroke-linecap="butt">
      <ellipse rx="46" fill="none" ry="28" clip-path="url(#clipPath2)" cx="973" cy="173"/>
      <text x="957.3408" xml:space="preserve" y="177.1543" clip-path="url(#clipPath2)" font-family="sans-serif" stroke="none">Node</text>
    </g>
    <g fill="rgb(255,204,0)" text-rendering="geometricPrecision" shape-rendering="geometricPrecision" transform="matrix(1,0,0,1,-197,-46)" stroke="rgb(255,204,0)">
      <ellipse rx="80" ry="38" clip-path="url(#clipPath2)" cx="352.5" cy="695" stroke="none"/>
    </g>
    <g text-rendering="geometricPrecision" stroke-miterlimit="1.45" shape-rendering="geometricPrecision" transform="matrix(1,0,0,1,-197,-46)" stroke-linecap="butt">
      <ellipse rx="80" fill="none" ry="38" clip-path="url(#clipPath2)" cx="352.5" cy="695"/>
      <text x="314.0596" xml:space="preserve" y="699.1543" clip-path="url(#clipPath2)" font-family="sans-serif" stroke="none">Organisation</text>
    </g>
    <g fill="rgb(255,204,0)" text-rendering="geometricPrecision" shape-rendering="geometricPrecision" transform="matrix(1,0,0,1,-197,-46)" stroke="rgb(255,204,0)">
      <ellipse rx="58.8312" ry="32.5" clip-path="url(#clipPath2)" cx="271.2403" cy="411.7662" stroke="none"/>
    </g>
    <g text-rendering="geometricPrecision" stroke-miterlimit="1.45" shape-rendering="geometricPrecision" transform="matrix(1,0,0,1,-197,-46)" stroke-linecap="butt">
      <ellipse rx="58.8312" fill="none" ry="32.5" clip-path="url(#clipPath2)" cx="271.2403" cy="411.7662"/>
      <text x="254.0518" xml:space="preserve" y="415.9205" clip-path="url(#clipPath2)" font-family="sans-serif" stroke="none">Event</text>
    </g>
    <g fill="rgb(255,204,0)" text-rendering="geometricPrecision" shape-rendering="geometricPrecision" transform="matrix(1,0,0,1,-197,-46)" stroke="rgb(255,204,0)">
      <ellipse rx="64.5" ry="35.5" clip-path="url(#clipPath2)" cx="538.7013" cy="487.1136" stroke="none"/>
    </g>
    <g text-rendering="geometricPrecision" stroke-miterlimit="1.45" shape-rendering="geometricPrecision" transform="matrix(1,0,0,1,-197,-46)" stroke-linecap="butt">
      <ellipse rx="64.5" fill="none" ry="35.5" clip-path="url(#clipPath2)" cx="538.7013" cy="487.1136"/>
      <text x="511.2999" xml:space="preserve" y="491.2679" clip-path="url(#clipPath2)" font-family="sans-serif" stroke="none">Standard</text>
    </g>
    <g fill="rgb(255,204,0)" text-rendering="geometricPrecision" shape-rendering="geometricPrecision" transform="matrix(1,0,0,1,-197,-46)" stroke="rgb(255,204,0)">
      <ellipse rx="64.5" ry="32.5" clip-path="url(#clipPath2)" cx="819.5" cy="513.1136" stroke="none"/>
    </g>
    <g text-rendering="geometricPrecision" stroke-miterlimit="1.45" shape-rendering="geometricPrecision" transform="matrix(1,0,0,1,-197,-46)" stroke-linecap="butt">
      <ellipse rx="64.5" fill="none" ry="32.5" clip-path="url(#clipPath2)" cx="819.5" cy="513.1136"/>
      <text x="791.1523" xml:space="preserve" y="517.2679" clip-path="url(#clipPath2)" font-family="sans-serif" stroke="none">Coverdoc</text>
      <path fill="none" d="M819.7259 240.9664 L710.8693 130.6014" clip-path="url(#clipPath2)"/>
      <path d="M705.2515 124.9058 L710.1185 136.9604 L711.5715 131.3134 L717.238 129.9381 Z" clip-path="url(#clipPath2)" stroke="none"/>
      <text x="763.2314" xml:space="preserve" y="184.2852" clip-path="url(#clipPath2)" font-family="sans-serif" stroke="none">IMPLEMENTS</text>
      <path fill="none" d="M377.8223 169.9004 L378.4616 167.8407 L379 162.5 L378.4616 157.1593 L376.9175 152.185 L374.4742 147.6836 L371.2383 143.7617 L367.3164 140.5258 L362.815 138.0825 L357.8407 136.5384 L352.5 136 L347.1593 136.5384 L342.185 138.0825 L337.6836 140.5258 L333.7617 143.7617 L330.5258 147.6836 L328.0825 152.185 L326.5384 157.1593 L326.0524 161.9799 L326.0681 162.0787" clip-path="url(#clipPath2)"/>
      <path d="M327.1918 169.9994 L330.4568 157.416 L325.9277 161.0886 L320.5559 158.8206 Z" clip-path="url(#clipPath2)" stroke="none"/>
      <text x="351.2637" xml:space="preserve" y="126.9121" clip-path="url(#clipPath2)" font-family="sans-serif" stroke="none">CONTAINS</text>
      <path fill="none" d="M404.1917 196.8269 L781.2084 253.9131" clip-path="url(#clipPath2)"/>
      <path d="M789.1183 255.1108 L778.0021 248.3707 L780.2197 253.7634 L776.505 258.258 Z" clip-path="url(#clipPath2)" stroke="none"/>
      <text x="587.1275" xml:space="preserve" y="203.0683" clip-path="url(#clipPath2)" font-family="sans-serif" stroke="none">CONTAINS</text>
      <path fill="none" d="M397.0614 176.1838 L612.8401 114.1241" clip-path="url(#clipPath2)"/>
      <path d="M620.5284 111.9129 L607.614 110.4245 L611.8791 114.4005 L610.378 120.035 Z" clip-path="url(#clipPath2)" stroke="none"/>
      <text x="489.9153" xml:space="preserve" y="111.3067" clip-path="url(#clipPath2)" font-family="sans-serif" stroke="none">IMPLEMENTS</text>
      <path fill="none" d="M871.1351 242.7501 L935.8372 198.4466" clip-path="url(#clipPath2)"/>
      <path d="M942.438 193.9268 L929.7119 196.581 L935.012 199.0116 L935.3616 204.832 Z" clip-path="url(#clipPath2)" stroke="none"/>
      <text x="896.54" xml:space="preserve" y="239.4181" clip-path="url(#clipPath2)" font-family="sans-serif" stroke="none">IMPLEMENTS</text>
      <path fill="none" d="M1003.6754 152.1108 L1004.5164 149.8132 L1005.3295 146.6507 L1005.8297 143.3741 L1006 140 L1005.8297 136.6259 L1005.3295 133.3493 L1004.5164 130.1868 L1003.4067 127.1549 L1002.0171 124.2702 L1000.3641 121.5494 L998.4644 119.0089 L996.3345 116.6655 L993.9911 114.5356 L991.4506 112.6359 L988.7297 110.9829 L985.8451 109.5933 L982.8132 108.4836 L979.6506 107.6704 L976.3741 107.1704 L973 107 L969.6259 107.1704 L966.3494 107.6704 L963.1868 108.4836 L960.1549 109.5933 L957.2703 110.9829 L954.5494 112.6359 L952.0089 114.5356 L949.6655 116.6655 L947.5356 119.0089 L945.6359 121.5494 L943.9829 124.2702 L942.5933 127.1549 L941.4836 130.1868 L940.6705 133.3493 L940.1703 136.6259 L940 140 L940.1703 143.3741 L940.3217 144.3656 L940.3507 144.4613" clip-path="url(#clipPath2)"/>
      <path d="M942.3495 152.2076 L944.1927 139.3389 L940.1008 143.493 L934.5099 141.8374 Z" clip-path="url(#clipPath2)" stroke="none"/>
      <text x="959.6948" xml:space="preserve" y="74.4608" clip-path="url(#clipPath2)" font-family="sans-serif" stroke="none">IS CHILD OF</text>
      <path fill="none" d="M344.7345 210.2885 L285.6034 372.3911" clip-path="url(#clipPath2)"/>
      <path d="M282.8618 379.9067 L291.6714 370.3467 L285.946 371.4516 L282.2769 366.9198 Z" clip-path="url(#clipPath2)" stroke="none"/>
      <text x="271.3109" xml:space="preserve" y="299.0374" clip-path="url(#clipPath2)" font-family="sans-serif" stroke="none">1..*</text>
      <path fill="none" d="M793.9743 275.437 L332.1819 395.8726" clip-path="url(#clipPath2)"/>
      <path d="M324.4408 397.8915 L337.3142 399.7014 L333.1495 395.6203 L334.7906 390.025 Z" clip-path="url(#clipPath2)" stroke="none"/>
      <text x="538.852" xml:space="preserve" y="312.351" clip-path="url(#clipPath2)" font-family="sans-serif" stroke="none">1..*</text>
      <path fill="none" d="M813.4982 283.7636 L583.6252 453.8699" clip-path="url(#clipPath2)"/>
      <path d="M577.1945 458.6286 L589.8148 455.5097 L584.4291 453.275 L583.8664 447.4713 Z" clip-path="url(#clipPath2)" stroke="none"/>
      <text x="800.7521" xml:space="preserve" y="343.7235" clip-path="url(#clipPath2)" font-family="sans-serif" stroke="none">SUPPORTED_BY</text>
      <path fill="none" d="M356.1927 657.0405 L363.9117 577.6932 L364.9022 573.0758 L366.9057 569.1765 L369.9221 565.9954 L373.9515 563.5324 L482.1233 513.3572" clip-path="url(#clipPath2)"/>
      <path d="M489.3806 509.9909 L476.3907 510.5045 L481.2161 513.778 L480.5985 519.5761 Z" clip-path="url(#clipPath2)" stroke="none"/>
      <text x="319.8145" xml:space="preserve" y="554.7591" clip-path="url(#clipPath2)" font-family="sans-serif" stroke="none">OWNS</text>
      <path fill="none" d="M394.6721 662.7087 L465.4109 608.5438 L480.3847 595.3564 L503.1315 572.3709 L509.2646 564.6917 L513.5955 555.8696 L523.2488 529.4324" clip-path="url(#clipPath2)"/>
      <path d="M525.9928 521.9177 L517.1802 531.4748 L522.9058 530.3718 L526.5735 534.9047 Z" clip-path="url(#clipPath2)" stroke="none"/>
      <text x="527.74" xml:space="preserve" y="554.4411" clip-path="url(#clipPath2)" font-family="sans-serif" stroke="none">RESPONSIBLE</text>
      <path fill="none" d="M577.3699 458.6862 L577.3805 458.6571 L578.3785 454.7758 L578.9922 450.7545 L579.2013 446.6136 L578.9922 442.4727 L578.3785 438.4515 L577.3805 434.5702 L576.0186 430.8492 L574.3132 427.3089 L572.2845 423.9697 L569.9531 420.8519 L567.3391 417.9758 L564.4631 415.3619 L561.3452 413.0304 L558.006 411.0018 L554.4657 409.2963 L550.7448 407.9344 L546.8635 406.9365 L542.8422 406.3228 L538.7013 406.1136 L534.5604 406.3228 L530.5391 406.9365 L526.6578 407.9344 L522.9369 409.2963 L519.3966 411.0018 L516.0574 413.0304 L512.9395 415.3619 L510.0635 417.9758 L507.4495 420.8519 L505.118 423.9697 L503.0894 427.309 L501.384 430.8492 L500.0221 434.5702 L499.0241 438.4515 L498.4104 442.4728 L498.2013 446.6136 L498.4104 450.7545 L498.4249 450.8494 L498.4498 450.9463" clip-path="url(#clipPath2)"/>
      <path d="M500.0528 458.784 L502.547 446.0255 L498.2495 449.9665 L492.7498 448.0292 Z" clip-path="url(#clipPath2)" stroke="none"/>
      <text x="532.7013" xml:space="preserve" y="426.0258" clip-path="url(#clipPath2)" font-family="sans-serif" stroke="none">IS CHILD OF</text>
      <path fill="none" d="M481.2854 470.9388 L331.3504 428.7001" clip-path="url(#clipPath2)"/>
      <path d="M323.6501 426.5308 L333.8447 434.5974 L332.3129 428.9713 L336.5563 424.972 Z" clip-path="url(#clipPath2)" stroke="none"/>
      <text x="380.4579" xml:space="preserve" y="480.8514" clip-path="url(#clipPath2)" font-family="sans-serif" stroke="none">1..*</text>
      <path fill="none" d="M756.0622 507.2397 L610.2734 493.7407" clip-path="url(#clipPath2)"/>
      <path d="M602.3075 493.0031 L613.7953 499.0882 L611.2692 493.8329 L614.7174 489.1308 Z" clip-path="url(#clipPath2)" stroke="none"/>
      <text x="654.3155" xml:space="preserve" y="474.1396" clip-path="url(#clipPath2)" font-family="sans-serif" stroke="none">COVERS</text>
      <text x="668.4688" xml:space="preserve" y="532.1396" clip-path="url(#clipPath2)" font-family="sans-serif" stroke="none">1..*</text>
    </g>
  </g>
</svg>
